# xmcd CD database file
#
# Track frame offsets:
#	150
#	15317
#	31992
#	47220
#	61542
#	79722
#	99485
#	117302
#	134185
#	151987
#	173167
#
# Disc length: 2606 seconds
#
# Revision: 8
# Processed by: cddbd v1.5.2PL0 Copyright (c) Steve Scherf et al.
# Submitted via: CDex 1.51
#
DISCID=840a2c0b
DTITLE=SHeDAISY - The Whole SHeBANG
DYEAR=1999
DGENRE=Country
TTITLE0=Little Good-Byes
TTITLE1=I Will...But
TTITLE2=This Woman Needs
TTITLE3=Before Me And You
TTITLE4=Lucky 4 You (Tonight I'm Just Me)
TTITLE5=Still Holding Out For You
TTITLE6=Punishment
TTITLE7='Cause I Like It That Way
TTITLE8=Without Your Love
TTITLE9=A Night To Remember
TTITLE10=Dancing With Angels
EXTD=YEAR: 1999
EXTT0=
EXTT1=
EXTT2=
EXTT3=
EXTT4=
EXTT5=
EXTT6=
EXTT7=
EXTT8=
EXTT9=
EXTT10=
PLAYORDER=
